HIERARCHY
ROOT hip
{
  OFFSET 0 0 0
  CHANNELS 6 Xposition Yposition Zposition Zrotation Yrotation Xrotation
  JOINT abdomen
  {
    OFFSET 0 20.6881 -0.73152
    CHANNELS 3 Zrotation Xrotation Yrotation
    JOINT chest
    {
      OFFSET 0 11.7043 -0.48768
      CHANNELS 3 Zrotation Xrotation Yrotation
      JOINT neck
      {
        OFFSET 0 22.1894 -2.19456
        CHANNELS 3 Zrotation Xrotation Yrotation
        JOINT head
        {
          OFFSET -0.24384 7.07133 1.2192
          CHANNELS 3 Zrotation Xrotation Yrotation
          JOINT leftEye
          {
            OFFSET 4.14528 8.04674 8.04672
            CHANNELS 3 Zrotation Xrotation Yrotation
            End Site
            {
              OFFSET 1 0 0
            }
          }
          JOINT rightEye
          {
            OFFSET -3.6576 8.04674 8.04672
            CHANNELS 3 Zrotation Xrotation Yrotation
            End Site
            {
              OFFSET 1 0 0
            }
          }
        }
      }
      JOINT rCollar
      {
        OFFSET -2.68224 19.2634 -4.8768
        CHANNELS 3 Zrotation Xrotation Yrotation
        JOINT rShldr
        {
          OFFSET -8.77824 -1.95073 1.46304
          CHANNELS 3 Zrotation Xrotation Yrotation
          JOINT rForeArm
          {
            OFFSET -28.1742 -1.7115 0.48768
            CHANNELS 3 Zrotation Xrotation Yrotation
            JOINT rHand
            {
              OFFSET -22.5879 0.773209 7.07136
              CHANNELS 3 Zrotation Xrotation Yrotation
              JOINT rThumb1
              {
                OFFSET -1.2192 -0.487915 3.41376
                CHANNELS 3 Zrotation Xrotation Yrotation
                JOINT rThumb2
                {
                  OFFSET -3.37035 -0.52449 3.41376
                  CHANNELS 3 Zrotation Xrotation Yrotation
                  End Site
                  {
                    OFFSET -1.78271 -1.18214 1.43049
                  }
                }
              }
              JOINT rIndex1
              {
                OFFSET -7.75947 0.938293 5.60832
                CHANNELS 3 Zrotation Xrotation Yrotation
                JOINT rIndex2
                {
                  OFFSET -2.54057 -0.884171 1.56538
                  CHANNELS 3 Zrotation Xrotation Yrotation
                  End Site
                  {
                    OFFSET -1.62519 -0.234802 1.16502
                  }
                }
              }
              JOINT rMid1
              {
                OFFSET -8.24714 1.18213 3.41376
                CHANNELS 3 Zrotation Xrotation Yrotation
                JOINT rMid2
                {
                  OFFSET -3.10165 -0.590103 1.0647
                  CHANNELS 3 Zrotation Xrotation Yrotation
                  End Site
                  {
                    OFFSET -2.48547 -0.328903 0.83742
                  }
                }
              }
              JOINT rRing1
              {
                OFFSET -8.82822 0.546677 1.51678
                CHANNELS 3 Zrotation Xrotation Yrotation
                JOINT rRing2
                {
                  OFFSET -2.60934 -0.819778 -0.0198488
                  CHANNELS 3 Zrotation Xrotation Yrotation
                  End Site
                  {
                    OFFSET -2.33842 -0.294052 0.168128
                  }
                }
              }
              JOINT rPinky1
              {
                OFFSET -8.27202 -0.0477905 -0.4584
                CHANNELS 3 Zrotation Xrotation Yrotation
                JOINT rPinky2
                {
                  OFFSET -1.82734 -0.647385 -0.700984
                  CHANNELS 3 Zrotation Xrotation Yrotation
                  End Site
                  {
                    OFFSET -1.69225 -0.51767 -0.607171
                  }
                }
              }
            }
          }
        }
      }
      JOINT lCollar
      {
        OFFSET 2.68224 19.2634 -4.8768
        CHANNELS 3 Zrotation Xrotation Yrotation
        JOINT lShldr
        {
          OFFSET 8.77824 -1.95073 1.46304
          CHANNELS 3 Zrotation Xrotation Yrotation
          JOINT lForeArm
          {
            OFFSET 28.1742 -1.7115 0.48768
            CHANNELS 3 Zrotation Xrotation Yrotation
            JOINT lHand
            {
              OFFSET 22.5879 0.773209 7.07136
              CHANNELS 3 Zrotation Xrotation Yrotation
              JOINT lThumb1
              {
                OFFSET 1.2192 -0.487915 3.41376
                CHANNELS 3 Zrotation Xrotation Yrotation
                JOINT lThumb2
                {
                  OFFSET 3.37035 -0.52449 3.41376
                  CHANNELS 3 Zrotation Xrotation Yrotation
                  End Site
                  {
                    OFFSET 1.78271 -1.18214 1.43049
                  }
                }
              }
              JOINT lIndex1
              {
                OFFSET 7.75947 0.938293 5.60832
                CHANNELS 3 Zrotation Xrotation Yrotation
                JOINT lIndex2
                {
                  OFFSET 2.54057 -0.884171 1.56538
                  CHANNELS 3 Zrotation Xrotation Yrotation
                  End Site
                  {
                    OFFSET 1.62519 -0.234802 1.16502
                  }
                }
              }
              JOINT lMid1
              {
                OFFSET 8.24714 1.18213 3.41376
                CHANNELS 3 Zrotation Xrotation Yrotation
                JOINT lMid2
                {
                  OFFSET 3.10165 -0.590103 1.0647
                  CHANNELS 3 Zrotation Xrotation Yrotation
                  End Site
                  {
                    OFFSET 2.48547 -0.328903 0.83742
                  }
                }
              }
              JOINT lRing1
              {
                OFFSET 8.82822 0.546677 1.51678
                CHANNELS 3 Zrotation Xrotation Yrotation
                JOINT lRing2
                {
                  OFFSET 2.60934 -0.819778 -0.0198488
                  CHANNELS 3 Zrotation Xrotation Yrotation
                  End Site
                  {
                    OFFSET 2.33842 -0.294052 0.168128
                  }
                }
              }
              JOINT lPinky1
              {
                OFFSET 8.27202 -0.0477905 -0.4584
                CHANNELS 3 Zrotation Xrotation Yrotation
                JOINT lPinky2
                {
                  OFFSET 1.82734 -0.647385 -0.700984
                  CHANNELS 3 Zrotation Xrotation Yrotation
                  End Site
                  {
                    OFFSET 1.69225 -0.51767 -0.607171
                  }
                }
              }
            }
          }
        }
      }
    }
  }
  JOINT rButtock
  {
    OFFSET -8.77824 4.35084 1.2192
    CHANNELS 3 Zrotation Xrotation Yrotation
    JOINT rThigh
    {
      OFFSET 0 -1.70687 -2.19456
      CHANNELS 3 Zrotation Xrotation Yrotation
      JOINT rShin
      {
        OFFSET 0 -36.8199 0.73152
        CHANNELS 3 Zrotation Xrotation Yrotation
        JOINT rFoot
        {
          OFFSET 0.73152 -45.1104 -5.12064
          CHANNELS 3 Zrotation Xrotation Yrotation
          End Site
          {
            OFFSET -1.1221 -3.69964 12.103
          }
        }
      }
    }
  }
  JOINT lButtock
  {
    OFFSET 8.77824 4.35084 1.2192
    CHANNELS 3 Zrotation Xrotation Yrotation
    JOINT lThigh
    {
      OFFSET 0 -1.70687 -2.19456
      CHANNELS 3 Zrotation Xrotation Yrotation
      JOINT lShin
      {
        OFFSET 0 -36.8199 0.73152
        CHANNELS 3 Zrotation Xrotation Yrotation
        JOINT lFoot
        {
          OFFSET -0.73152 -45.1104 -5.12064
          CHANNELS 3 Zrotation Xrotation Yrotation
          End Site
          {
            OFFSET 1.1221 -3.69964 12.103
          }
        }
      }
    }
  }
}
MOTION
Frames:	4
Frame Time:	0.03333
8.30487418281246 38.01272114641063 -22.79023187913735 157.17831420898438 80.97099304199219 164.01315307617188 -1.1630867719650269 20.7379207611084 9.727930068969727 -4.9090447425842285 -13.610835075378418 1.721821665763855 1.6515952348709106 12.14925765991211 10.447892189025879 -4.4990129470825195 -26.14325523376465 23.492103576660156 -0.47546470165252686 -0.0033702412620186806 -0.15766018629074097 0.12783537805080414 -0.8252909183502197 0.011894037015736103 0.4426274597644806 0.48770228028297424 0.4456614851951599 15.872392654418945 54.73003387451172 32.148006439208984 -29.15077018737793 -40.54081344604492 83.0558090209961 -0.8614739179611206 12.015938758850098 1.4432871341705322 -0.13586778938770294 0.13467469811439514 -0.489943265914917 0.0372622050344944 0.509804904460907 0.6851409077644348 -0.8371670842170715 -0.18892692029476166 0.4388412833213806 7.623404026031494 5.064701557159424 0.8242554068565369 0.3976631760597229 -0.3755192756652832 -0.6702969670295715 2.929161548614502 1.6709885597229004 -0.17253561317920685 -0.4019433557987213 0.35471296310424805 0.14176085591316223 9.221108436584473 1.2286516427993774 0.46754130721092224 0.6218641400337219 0.01894087716937065 -0.01649879477918148 2.1501078605651855 -1.2006380558013916 -0.3145151734352112 0.32344287633895874 0.7378029823303223 0.0622732937335968 -56.815940856933594 16.746469497680664 -24.553224563598633 28.071334838867188 -44.193336486816406 -87.87349700927734 2.3259823322296143 -37.96540451049805 5.427285671234131 -0.3954913020133972 0.37898653745651245 0.334397554397583 0.30562624335289 -0.3300364315509796 0.4149344563484192 -0.3189464509487152 -0.18582691252231598 -0.558466374874115 -7.995047569274902 6.135715484619141 -0.28505364060401917 -0.15423937141895294 -0.5202404856681824 1.3637373447418213 -2.1289727687835693 1.3047477006912231 0.2793145477771759 0.21360209584236145 0.3294820785522461 0.5205749273300171 -10.376784324645996 0.9002036452293396 -0.2929312288761139 0.4514469802379608 -0.19029708206653595 0.36496418714523315 -2.8972268104553223 -0.9140573740005493 -0.20205502212047577 0.9650405645370483 -0.5869725346565247 0.4214063882827759 -37.983272552490234 -57.54970932006836 -37.01321792602539 -46.94261932373047 86.67686462402344 47.47043228149414 -1.4064054489135742 -7.045305252075195 -3.711275815963745 -0.30131784081459045 -0.1132286936044693 -0.22451262176036835 9.388101577758789 -56.72932052612305 17.050325393676758 1.796207070350647 71.57424926757812 -2.476680040359497 2.795254945755005 -19.676788330078125 2.479383945465088
8.75824687871398 39.18678285341163 -24.115369046285988 150.59658813476562 80.05032348632812 145.66317749023438 -2.236855983734131 20.69313621520996 10.057755470275879 -4.999931335449219 -13.174110412597656 2.0027146339416504 1.3036601543426514 12.161789894104004 10.11865234375 -5.148731231689453 -26.08110237121582 22.914979934692383 -0.34203505516052246 0.18992063403129578 -0.09271448850631714 0.16846725344657898 -0.4742361903190613 -0.30996400117874146 0.7117327451705933 0.5522522330284119 0.48017144203186035 17.9443359375 54.83895492553711 29.156761169433594 -28.684406280517578 -40.530982971191406 83.60553741455078 -0.4528903365135193 12.607470512390137 1.841862440109253 -0.19182737171649933 0.09721721708774567 -0.3749561309814453 0.03409372270107269 0.5988601446151733 0.721149206161499 -0.45467638969421387 -0.09625023603439331 0.20964325964450836 7.507705211639404 4.971873760223389 0.5265095233917236 0.1180165484547615 -0.32378169894218445 -0.3663918375968933 3.1554038524627686 1.6690764427185059 -0.028972120955586433 -0.7722812294960022 0.1401333063840866 -0.19440285861492157 9.395102500915527 0.9284189343452454 0.38822630047798157 0.4660739302635193 0.01892133802175522 -0.20660802721977234 2.3819057941436768 -1.1262938976287842 -0.16653268039226532 0.3521367311477661 0.7221686244010925 0.19989091157913208 -57.281837463378906 17.506305694580078 -21.823869705200195 27.81425666809082 -44.8892707824707 -89.31004333496094 2.220036029815674 -37.253814697265625 5.262206554412842 -0.22690919041633606 0.5202078819274902 0.0515378899872303 0.3051522374153137 -0.3517981171607971 0.6162102818489075 -0.13427987694740295 -0.19823849201202393 -1.0139271020889282 -8.007713317871094 5.896345615386963 -0.36208197474479675 -0.266937792301178 -0.38303089141845703 1.25398850440979 -2.0958940982818604 1.3783107995986938 0.4373737573623657 -0.38814064860343933 0.31294897198677063 0.3731592893600464 -10.593729972839355 0.9605748057365417 -0.10583937913179398 0.6990200281143188 -0.2786809206008911 0.4165460467338562 -2.710491895675659 -1.0012468099594116 -0.16416126489639282 0.8055794835090637 -0.6069415807723999 0.046326134353876114 -39.66441345214844 -58.67600631713867 -40.91428756713867 -100.69892120361328 87.72582244873047 101.11666870117188 -0.03354302793741226 -6.969717025756836 0.18073897063732147 -0.38453590869903564 -0.2034996896982193 -0.35505470633506775 4.383760929107666 -54.968833923339844 14.72909927368164 1.818881630897522 71.4429931640625 -2.3986504077911377 2.732429265975952 -16.899503707885742 -0.7936623692512512
9.40115134766783 40.119458844955204 -25.48675353102648 143.08287048339844 77.78496551513672 136.10699462890625 -3.299895763397217 20.541786193847656 10.283797264099121 -5.004558086395264 -12.464746475219727 2.251945734024048 0.7461310625076294 12.550095558166504 9.969805717468262 -5.6360039710998535 -26.07650375366211 21.865699768066406 -0.13724425435066223 0.5083916783332825 0.05577707663178444 0.2256653755903244 -0.050221484154462814 -0.6488368511199951 0.8861734867095947 0.5077875852584839 0.3342093527317047 21.103103637695312 55.181365966796875 25.726287841796875 -27.981632232666016 -40.215999603271484 84.33110809326172 0.015663107857108116 13.134500503540039 2.141394853591919 -0.16655665636062622 0.11774180829524994 -0.14399972558021545 0.023809708654880524 0.659279465675354 0.639007031917572 -0.09568612277507782 0.16246692836284637 -0.056914035230875015 7.366730213165283 4.788625717163086 0.008471368812024593 -0.195426344871521 -0.3190566897392273 0.08012451231479645 3.403557300567627 1.653685450553894 0.0707472488284111 -1.0777126550674438 -0.049767691642045975 -0.45427852869033813 9.633399963378906 0.530908465385437 0.33203020691871643 0.3577788472175598 0.09689074009656906 -0.3892553746700287 2.40155029296875 -0.8298980593681335 0.10993035137653351 0.2835102081298828 0.6794564127922058 0.2647534906864166 -57.34821319580078 18.51542091369629 -19.517364501953125 27.562875747680664 -45.49125671386719 -90.68297576904297 1.9410271644592285 -36.46747589111328 5.060122489929199 -0.14508633315563202 0.603125810623169 -0.19031882286071777 0.24891862273216248 -0.5480979681015015 0.7880630493164062 -0.08629124611616135 -0.15747731924057007 -1.3699140548706055 -7.875600337982178 5.521003246307373 -0.418723464012146 -0.41302454471588135 -0.18600009381771088 1.0215150117874146 -2.0182244777679443 1.4141218662261963 0.47104930877685547 -1.0129247903823853 0.25509968400001526 0.13352233171463013 -10.915258407592773 0.9352752566337585 0.1187274381518364 0.977207601070404 -0.32151567935943604 0.5527425408363342 -2.4708199501037598 -1.0181405544281006 -0.08124979585409164 0.5094506740570068 -0.722457766532898 -0.25686755776405334 -40.48514175415039 -59.00990676879883 -43.32291793823242 -128.8856964111328 87.66795349121094 129.20657348632812 1.3314303159713745 -6.2336883544921875 3.974008321762085 -0.3301355540752411 -0.2332187443971634 -0.5322308540344238 -0.09563003480434418 -53.361854553222656 12.665681838989258 1.6633992195129395 72.51460266113281 -2.1768198013305664 2.698143482208252 -13.662504196166992 -4.0810651779174805
10.229710069937852 40.692825905021095 -27.125029365132516 136.8234405517578 75.0197982788086 130.54754638671875 -4.468818187713623 20.677995681762695 10.290292739868164 -5.115032196044922 -11.569436073303223 2.2877862453460693 0.13958528637886047 12.967100143432617 10.025518417358398 -5.695060729980469 -26.178058624267578 20.961952209472656 0.15678830444812775 0.8620342016220093 0.24794647097587585 0.2892437279224396 0.18905846774578094 -0.8474767804145813 0.7869204878807068 0.3363029360771179 -0.0042569320648908615 25.309112548828125 55.5272102355957 21.16778564453125 -27.407554626464844 -39.87263107299805 85.00504302978516 0.14882467687129974 13.134549140930176 2.134819746017456 0.006116413976997137 0.2313755750656128 0.17878785729408264 0.01517223846167326 0.6788631081581116 0.45644843578338623 -0.06351941078901291 0.45745739340782166 -0.16266293823719025 7.3013787269592285 4.628699779510498 -0.5788753628730774 -0.30708637833595276 -0.2694660723209381 0.3277877867221832 3.3898677825927734 1.658229947090149 0.10819952189922333 -1.2145715951919556 -0.14747868478298187 -0.3826921582221985 9.864508628845215 0.24643480777740479 0.4657112956047058 0.38698810338974 0.25892195105552673 -0.43536171317100525 2.2066729068756104 -0.4703219532966614 0.35025477409362793 0.1537807285785675 0.626897394657135 0.28134581446647644 -57.71409225463867 18.82408905029297 -18.289825439453125 27.642457962036133 -45.62016677856445 -90.84930419921875 1.565699577331543 -35.4266471862793 4.7715559005737305 -0.13732412457466125 0.5420402884483337 -0.25982293486595154 0.14392012357711792 -0.8743888735771179 0.8502963781356812 -0.19528140127658844 -0.022964950650930405 -1.4555718898773193 -7.619259357452393 5.190523624420166 -0.5067861080169678 -0.4917430281639099 -0.062150128185749054 0.7383055686950684 -1.8638933897018433 1.4032201766967773 0.4247210621833801 -1.1712619066238403 0.13737992942333221 0.024007175117731094 -11.082091331481934 0.8051626682281494 0.11904895305633545 1.094531774520874 -0.31574344635009766 0.7701404094696045 -2.2782137393951416 -0.8940345048904419 0.13082756102085114 0.2751826047897339 -0.9250579476356506 -0.40839770436286926 -39.15772247314453 -58.240020751953125 -42.86445617675781 -87.8702392578125 88.561279296875 88.09690856933594 1.7426531314849854 -5.626723289489746 6.117409706115723 -0.09877543151378632 -0.15342500805854797 -0.6521894335746765 -2.096691370010376 -52.27851104736328 12.089117050170898 1.7789007425308228 74.48811340332031 -2.2074761390686035 2.5287678241729736 -9.906830787658691 -7.237613677978516
